{
	"asset":{
		"generator":"Khronos glTF Blender I/O v5.1.20",
		"version":"2.0"
	},
	"extensionsUsed":[
		"KHR_lights_punctual"
	],
	"extensionsRequired":[
		"KHR_lights_punctual"
	],
	"extensions":{
		"KHR_lights_punctual":{
			"lights":[
				{
					"color":[
						1,
						1,
						1
					],
					"intensity":2.3930001258850098,
					"type":"directional",
					"name":"Sun"
				},
				{
					"color":[
						1,
						0.8567734360694885,
						0.21838948130607605
					],
					"intensity":13.480423194181194,
					"type":"point",
					"name":"Point"
				}
			]
		}
	},
	"scene":0,
	"scenes":[
		{
			"extras":{
				"power_sequencer":{
					"frame_pre":1
				}
			},
			"name":"Scene",
			"nodes":[
				0,
				1,
				2,
				3
			]
		}
	],
	"nodes":[
		{
			"mesh":0,
			"name":"Sphere.001"
		},
		{
			"camera":0,
			"name":"Camera",
			"rotation":[
				-0.7063019275665283,
				-0.03372851014137268,
				-0.03372851014137268,
				0.7063019275665283
			],
			"translation":[
				-0.3735118806362152,
				7.933942794799805,
				0.4328615963459015
			]
		},
		{
			"extensions":{
				"KHR_lights_punctual":{
					"light":0
				}
			},
			"name":"Sun",
			"rotation":[
				-0.6974031329154968,
				-0.13392680883407593,
				0.13321341574192047,
				0.6913369297981262
			],
			"translation":[
				-2.4861862659454346,
				3.8680386543273926,
				0
			]
		},
		{
			"extensions":{
				"KHR_lights_punctual":{
					"light":1
				}
			},
			"name":"Point",
			"rotation":[
				-0.7071068286895752,
				0,
				0,
				0.7071068286895752
			],
			"translation":[
				1.8962974548339844,
				-0.34048575162887573,
				-0.598291277885437
			]
		}
	],
	"cameras":[
		{
			"name":"Camera",
			"perspective":{
				"aspectRatio":1,
				"yfov":0.4772186577320099,
				"zfar":1000,
				"znear":0.10000000149011612
			},
			"type":"perspective"
		}
	],
	"materials":[
		{
			"doubleSided":true,
			"name":"pupil",
			"pbrMetallicRoughness":{
				"baseColorFactor":[
					0,
					0,
					0,
					1
				],
				"metallicFactor":0,
				"roughnessFactor":0.5
			}
		},
		{
			"doubleSided":true,
			"name":"body",
			"pbrMetallicRoughness":{
				"baseColorFactor":[
					0.8000000715255737,
					0.10267013311386108,
					0,
					1
				],
				"metallicFactor":0,
				"roughnessFactor":0.5
			}
		},
		{
			"doubleSided":true,
			"name":"eye",
			"pbrMetallicRoughness":{
				"baseColorFactor":[
					0.912214994430542,
					0.912214994430542,
					0.912214994430542,
					1
				],
				"metallicFactor":0,
				"roughnessFactor":0.5
			}
		}
	],
	"meshes":[
		{
			"name":"Mesh",
			"primitives":[
				{
					"attributes":{
						"POSITION":0,
						"NORMAL":1,
						"TEXCOORD_0":2,
						"TANGENT":3
					},
					"indices":4,
					"material":0
				},
				{
					"attributes":{
						"POSITION":5,
						"NORMAL":6,
						"TEXCOORD_0":7,
						"TANGENT":8
					},
					"indices":9,
					"material":1
				},
				{
					"attributes":{
						"POSITION":10,
						"NORMAL":11,
						"TEXCOORD_0":12,
						"TANGENT":13
					},
					"indices":14,
					"material":2
				}
			]
		}
	],
	"accessors":[
		{
			"bufferView":0,
			"componentType":5126,
			"count":16025,
			"max":[
				0.389684796333313,
				0.7428231835365295,
				0.35343843698501587
			],
			"min":[
				-0.3439192771911621,
				0.4037111699581146,
				-0.3949586749076843
			],
			"type":"VEC3"
		},
		{
			"bufferView":1,
			"componentType":5126,
			"count":16025,
			"type":"VEC3"
		},
		{
			"bufferView":2,
			"componentType":5126,
			"count":16025,
			"type":"VEC2"
		},
		{
			"bufferView":3,
			"componentType":5126,
			"count":16025,
			"type":"VEC4"
		},
		{
			"bufferView":4,
			"componentType":5123,
			"count":87552,
			"type":"SCALAR"
		},
		{
			"bufferView":5,
			"componentType":5126,
			"count":29628,
			"max":[
				1.0194429159164429,
				0.43043747544288635,
				1.9497464895248413
			],
			"min":[
				-0.9812888503074646,
				-0.4728763997554779,
				-1.0345195531845093
			],
			"type":"VEC3"
		},
		{
			"bufferView":6,
			"componentType":5126,
			"count":29628,
			"type":"VEC3"
		},
		{
			"bufferView":7,
			"componentType":5126,
			"count":29628,
			"type":"VEC2"
		},
		{
			"bufferView":8,
			"componentType":5126,
			"count":29628,
			"type":"VEC4"
		},
		{
			"bufferView":9,
			"componentType":5123,
			"count":151296,
			"type":"SCALAR"
		},
		{
			"bufferView":10,
			"componentType":5126,
			"count":16025,
			"max":[
				0.7050886154174805,
				0.6477128863334656,
				0.6752023100852966
			],
			"min":[
				-0.6593230962753296,
				-0.0461144857108593,
				-0.7167224884033203
			],
			"type":"VEC3"
		},
		{
			"bufferView":11,
			"componentType":5126,
			"count":16025,
			"type":"VEC3"
		},
		{
			"bufferView":12,
			"componentType":5126,
			"count":16025,
			"type":"VEC2"
		},
		{
			"bufferView":13,
			"componentType":5126,
			"count":16025,
			"type":"VEC4"
		},
		{
			"bufferView":14,
			"componentType":5123,
			"count":87552,
			"type":"SCALAR"
		}
	],
	"bufferViews":[
		{
			"buffer":0,
			"byteLength":192300,
			"byteOffset":0,
			"target":34962
		},
		{
			"buffer":0,
			"byteLength":192300,
			"byteOffset":192300,
			"target":34962
		},
		{
			"buffer":0,
			"byteLength":128200,
			"byteOffset":384600,
			"target":34962
		},
		{
			"buffer":0,
			"byteLength":256400,
			"byteOffset":512800,
			"target":34962
		},
		{
			"buffer":0,
			"byteLength":175104,
			"byteOffset":769200,
			"target":34963
		},
		{
			"buffer":0,
			"byteLength":355536,
			"byteOffset":944304,
			"target":34962
		},
		{
			"buffer":0,
			"byteLength":355536,
			"byteOffset":1299840,
			"target":34962
		},
		{
			"buffer":0,
			"byteLength":237024,
			"byteOffset":1655376,
			"target":34962
		},
		{
			"buffer":0,
			"byteLength":474048,
			"byteOffset":1892400,
			"target":34962
		},
		{
			"buffer":0,
			"byteLength":302592,
			"byteOffset":2366448,
			"target":34963
		},
		{
			"buffer":0,
			"byteLength":192300,
			"byteOffset":2669040,
			"target":34962
		},
		{
			"buffer":0,
			"byteLength":192300,
			"byteOffset":2861340,
			"target":34962
		},
		{
			"buffer":0,
			"byteLength":128200,
			"byteOffset":3053640,
			"target":34962
		},
		{
			"buffer":0,
			"byteLength":256400,
			"byteOffset":3181840,
			"target":34962
		},
		{
			"buffer":0,
			"byteLength":175104,
			"byteOffset":3438240,
			"target":34963
		}
	],
	"buffers":[
		{
			"byteLength":3613344,
			"uri":"player-7531ce38fb8dc3874ef382f8a3b5b9d4.bin"
		}
	]
}
